<svg xmlns:rdf="http://www.w3.org/1999/02/22-rdf-syntax-ns#" xmlns="http://www.w3.org/2000/svg" version="1.1" xmlns:cc="http://creativecommons.org/ns#" xmlns:dc="http://purl.org/dc/elements/1.1/" viewBox="0 0 20 21" width="16px" height="16px">
    <g transform="translate(-324 -522.73)">
        <g transform="translate(1847.6 -1643)">
            <path fill="#c0392b" d="m-1503.6 2176.7c0 5.523-4.477 10-10 10-5.5228 0-10-4.477-10-10 0-5.5228 4.4772-10 10-10 5.523 0 10 4.4772 10 10z"/>
            <path fill="#e74c3c" d="m-1503.6 2175.7c0 5.523-4.477 10-10 10-5.5228 0-10-4.477-10-10 0-5.5228 4.4772-10 10-10 5.523 0 10 4.4772 10 10z"/>
            <path fill="#c0392b" d="m-1518.5 2173.1 3.5357 3.6-3.5357 3.5 1.4142 1.4 3.5355-3.5 3.536 3.5 1.414-1.4-3.536-3.5 3.536-3.6-1.414-1.4-3.536 3.5-3.5355-3.5-1.4142 1.4z"/>
            <path fill="#ecf0f1" d="m-1518.5 2172.1 3.5357 3.6-3.5357 3.5 1.4142 1.4 3.5355-3.5 3.536 3.5 1.414-1.4-3.536-3.5 3.536-3.6-1.414-1.4-3.536 3.5-3.5355-3.5-1.4142 1.4z"/>
        </g>
    </g>
</svg>
